<svg xmlns="http://www.w3.org/2000/svg" viewBox="0 0 266.77 59"><defs><style>.cls-1{fill:#fff;}.cls-2{fill:#71a995;}</style></defs><title>logo_inicio</title><g id="Capa_2" data-name="Capa 2"><g id="Capa_1-2" data-name="Capa 1"><path class="cls-1" d="M4.62,21.16H2.27l.67-3.78H5.29l.36-2.09c.49-2.85,1.2-4.62,2.36-5.74s2.71-1.47,4.89-1.47a9.84,9.84,0,0,1,4.58,1l-1.25,3.29a6.19,6.19,0,0,0-2.67-.62c-2.13,0-2.54,1.11-3,3.78l-.31,1.82h4.36l-.67,3.78H9.56L4.94,47.4,0,47.44Z"/><path class="cls-1" d="M15.56,37.53a13.45,13.45,0,0,1-1.2-6.14c0-4.85,1.42-8.49,3.51-10.94a10,10,0,0,1,7.51-3.69,5,5,0,0,1,2.76.67,12.49,12.49,0,0,1,3,2.89l.8-2.93h4l-.76,3.91L33.13,32.86l-.27,6.54H28.32l.22-4.58c-1.07.76-2,1.47-2.85,2.09a19.31,19.31,0,0,1-4.4,2.67,5.55,5.55,0,0,1-1.87.36A4.18,4.18,0,0,1,15.56,37.53Zm8.58-2.76q1.73-1.13,4.4-3.2l1.38-7.74a8.53,8.53,0,0,0-2.36-2.4,3.8,3.8,0,0,0-2-.49,5.25,5.25,0,0,0-4,2.31,11.9,11.9,0,0,0-2.18,7.43,12.35,12.35,0,0,0,.45,4.09,1.5,1.5,0,0,0,1.47,1.16A6,6,0,0,0,24.14,34.77Z"/><path class="cls-1" d="M40.16,23.83l.31-6.45h4.45L45,20.77l2.93-2.22a7.77,7.77,0,0,1,4.58-1.78A5.41,5.41,0,0,1,56,17.87l-2,4c-2.09-1.38-4.09-.89-6.09.58L45,24.5,42.29,39.39H37.35Z"/><path class="cls-1" d="M57.63,23.39l.13-6h4.45l.22,4.09a53.49,53.49,0,0,1,6.31-3.82,7.53,7.53,0,0,1,3.42-.89,3.28,3.28,0,0,1,3,1.38,5.38,5.38,0,0,1,.58,3.07,48.13,48.13,0,0,1,6-3.6,7.08,7.08,0,0,1,3.33-.84,3.22,3.22,0,0,1,3.2,1.69,6.16,6.16,0,0,1,.27,3.6L85.47,39.39H80.53l2.85-16.05c.22-1.6-.13-2.22-1-2.27a7.22,7.22,0,0,0-3.33,1.42l-4,2.44L72.57,39.39H67.64l2.85-16.05c.22-1.6-.13-2.22-.93-2.27a6.78,6.78,0,0,0-3.34,1.38l-3.87,2.4L59.72,39.39H54.79Z"/><path class="cls-1" d="M92.23,37.53A13.45,13.45,0,0,1,91,31.39c0-4.85,1.42-8.49,3.51-10.94a10,10,0,0,1,7.51-3.69,5,5,0,0,1,2.76.67,12.49,12.49,0,0,1,3,2.89l.8-2.93h4l-.76,3.91-2.13,11.56-.27,6.54H105l.22-4.58c-1.07.76-2,1.47-2.85,2.09A19.33,19.33,0,0,1,98,39.57a5.55,5.55,0,0,1-1.87.36A4.17,4.17,0,0,1,92.23,37.53Zm8.58-2.76q1.73-1.13,4.4-3.2l1.38-7.74a8.53,8.53,0,0,0-2.36-2.4,3.8,3.8,0,0,0-2-.49,5.25,5.25,0,0,0-4,2.31,11.9,11.9,0,0,0-2.18,7.43,12.36,12.36,0,0,0,.44,4.09A1.5,1.5,0,0,0,98,35.93,6,6,0,0,0,100.81,34.77Z"/><path class="cls-2" d="M112.69,38.55l1.42-3.65a20.52,20.52,0,0,0,5.82,1.24c3.2,0,5.2-1.24,5.2-3.6a1.68,1.68,0,0,0-.89-1.6,16.25,16.25,0,0,0-3.07-1.07,11.17,11.17,0,0,1-4.14-2,4.39,4.39,0,0,1-1.69-3.6,6.82,6.82,0,0,1,2.89-5.91,10.65,10.65,0,0,1,6.18-1.64,14.83,14.83,0,0,1,7.34,1.6L130.29,22a13.1,13.1,0,0,0-5.69-1.33c-2.36,0-4.09.93-4.09,3.07a1.51,1.51,0,0,0,.84,1.42,10.22,10.22,0,0,0,2.8,1.07A13.12,13.12,0,0,1,128.51,28a4.59,4.59,0,0,1,1.78,3.91,7.2,7.2,0,0,1-2.71,6,11.32,11.32,0,0,1-7,2A21.82,21.82,0,0,1,112.69,38.55Z"/><path class="cls-2" d="M138.88,8.18h4.8l-2.31,13.38,3.78-2.45a11.4,11.4,0,0,1,6-2.36,3.22,3.22,0,0,1,3.2,1.69,6.16,6.16,0,0,1,.27,3.6l-3.07,17.34h-4.94l2.85-16.05c.13-1.07.13-2.22-.93-2.22a7.15,7.15,0,0,0-3.47,1.51l-4.4,2.8-2.36,14h-4.94Z"/><path class="cls-2" d="M157.73,31.44a17,17,0,0,1,3.16-10.32,10.9,10.9,0,0,1,8.94-4.36c5.47,0,8.09,2.93,8.09,8.49a16.94,16.94,0,0,1-3.07,10.27A11.1,11.1,0,0,1,165.74,40C160.4,40,157.73,37.17,157.73,31.44ZM171.21,33a16,16,0,0,0,1.69-7.47c0-3.38-1-4.89-3.69-4.89a5.57,5.57,0,0,0-4.8,3.07,15.21,15.21,0,0,0-1.73,7.47c0,3.42,1,5,3.69,5A5.53,5.53,0,0,0,171.21,33Z"/><path class="cls-2" d="M182.81,22.77l.09-5.43h4.63l.53,3.82,2.8-2a18.33,18.33,0,0,1,3.07-1.69,8.4,8.4,0,0,1,3.16-.76c3.56,0,5,2.49,5,6.94,0,5-1.2,9.11-3.29,11.92A10,10,0,0,1,190.5,40a4.91,4.91,0,0,1-3.29-1.2l-2-1.82-2,11.16h-4.94ZM194.86,33.3A14.66,14.66,0,0,0,197,25c0-2.44-.58-4-2-4a5.33,5.33,0,0,0-2.18.67,13.22,13.22,0,0,0-2,1.2l-3.42,2.31-1.47,8.31,2.36,1.91a3.44,3.44,0,0,0,1.73.8A5.85,5.85,0,0,0,194.86,33.3Z"/><path class="cls-2" d="M202.6,38.55,204,34.9a20.51,20.51,0,0,0,5.82,1.24c3.2,0,5.2-1.24,5.2-3.6a1.68,1.68,0,0,0-.89-1.6,16.27,16.27,0,0,0-3.07-1.07,11.18,11.18,0,0,1-4.14-2,4.39,4.39,0,0,1-1.69-3.6,6.83,6.83,0,0,1,2.89-5.91,10.65,10.65,0,0,1,6.18-1.64,14.84,14.84,0,0,1,7.34,1.6L220.21,22a13.1,13.1,0,0,0-5.69-1.33c-2.36,0-4.09.93-4.09,3.07a1.51,1.51,0,0,0,.84,1.42,10.19,10.19,0,0,0,2.8,1.07A13.12,13.12,0,0,1,218.43,28a4.59,4.59,0,0,1,1.78,3.91,7.2,7.2,0,0,1-2.71,6,11.32,11.32,0,0,1-7,2A21.83,21.83,0,0,1,202.6,38.55Z"/><path class="cls-2" d="M238.35,26.42a5.4,5.4,0,0,0,10.09-3.86l-3.64-9.51-.06,0-10,3.84Z"/><path class="cls-1" d="M241.15,3.47a5.4,5.4,0,1,0-10.09,3.86l3.65,9.54L244.8,13Z"/><circle class="cls-1" cx="241.01" cy="45.64" r="4.4" transform="translate(142.75 270.39) rotate(-77.11)"/><circle class="cls-1" cx="258.76" cy="45.93" r="4.4" transform="translate(156.25 287.92) rotate(-77.11)"/><path class="cls-1" d="M264.57,38.43h-24.7a8.88,8.88,0,0,1-8.32-5.68L223.17,12h-9.22a2.2,2.2,0,0,1,0-4.4h10.71a2.2,2.2,0,0,1,2,1.38l8.94,22.15A4.51,4.51,0,0,0,239.87,34h24.7a2.2,2.2,0,1,1,0,4.4Z"/><path class="cls-1" d="M17.78,50.34H16.09V59h-.7V50.34h-1.7v-.7h4.09Z"/><path class="cls-1" d="M22.56,59a2.4,2.4,0,0,1-1.71-.71,2.5,2.5,0,0,1-.51-.77,2.36,2.36,0,0,1-.19-.94V50.36h-.47v-.7h1.17v6.89a1.68,1.68,0,0,0,.13.67,1.73,1.73,0,0,0,.91.92,1.73,1.73,0,0,0,1.33,0,1.73,1.73,0,0,0,.91-.92,1.68,1.68,0,0,0,.13-.67v-6.9H25v6.89a2.36,2.36,0,0,1-.19.94,2.5,2.5,0,0,1-.51.77,2.4,2.4,0,0,1-1.71.71Z"/><path class="cls-1" d="M31.49,59h-2V49.66h2a2.26,2.26,0,0,1,.91.18,2.31,2.31,0,0,1,1.23,1.23,2.28,2.28,0,0,1,.18.91,2.25,2.25,0,0,1-.29,1.12,2.4,2.4,0,0,1-.76.83,2.68,2.68,0,0,1,1,1A2.69,2.69,0,0,1,34,57.33a2.73,2.73,0,0,1-1.43,1.43A2.64,2.64,0,0,1,31.49,59Zm-1.26-5.34h1.32a1.62,1.62,0,0,0,.6-.14,1.59,1.59,0,0,0,.5-.35,1.66,1.66,0,0,0,.34-.51,1.66,1.66,0,0,0,0-1.26,1.65,1.65,0,0,0-.86-.87,1.57,1.57,0,0,0-.63-.13H30.23Zm0,4.65h1.26a1.92,1.92,0,0,0,.78-.16,2,2,0,0,0,1.05-1.05,2,2,0,0,0,0-1.53,2,2,0,0,0-.41-.62,2,2,0,0,0-1.37-.6H30.23Z"/><path class="cls-1" d="M37.24,50.36v7.93h.47V59H36.08v-.69h.46V50.36h-.46v-.7h1.63v.7Z"/><path class="cls-1" d="M40.31,50.34v3.26h2.34v.7H40.31v4h2.91V59H39.61V49.65h3.61v.7Z"/><path class="cls-1" d="M45.12,59V49.65h1l3.47,8.09V49.65h.7V59H49.3l-3.48-8.15V59Z"/><path class="cls-1" d="M52.84,50.34v3.26h2.34v.7H52.84v4h2.91V59H52.14V49.65h3.61v.7Z"/><path class="cls-1" d="M60,59a2.29,2.29,0,0,1-.91-.18,2.27,2.27,0,0,1-.74-.5,2.36,2.36,0,0,1-.5-.74,2.26,2.26,0,0,1-.18-.91h.7a1.57,1.57,0,0,0,.13.63,1.65,1.65,0,0,0,.35.51,1.62,1.62,0,0,0,.52.35,1.63,1.63,0,0,0,1.26,0,1.65,1.65,0,0,0,.86-.86,1.57,1.57,0,0,0,.13-.64,1.4,1.4,0,0,0-.15-.64,1.93,1.93,0,0,0-.39-.52,3.82,3.82,0,0,0-.58-.45l-.69-.43q-.38-.22-.76-.46a4,4,0,0,1-.69-.56,2.8,2.8,0,0,1-.5-.7,2,2,0,0,1-.2-.91,2.26,2.26,0,0,1,.18-.91,2.31,2.31,0,0,1,1.23-1.23,2.33,2.33,0,0,1,1.82,0,2.31,2.31,0,0,1,1.23,1.23,2.27,2.27,0,0,1,.18.91h-.7a1.57,1.57,0,0,0-.13-.63,1.65,1.65,0,0,0-.86-.86,1.63,1.63,0,0,0-1.26,0,1.61,1.61,0,0,0-.52.35,1.65,1.65,0,0,0-.35.51,1.57,1.57,0,0,0-.13.63,1.37,1.37,0,0,0,.15.65,2,2,0,0,0,.39.51,3.91,3.91,0,0,0,.57.44l.69.43.76.48a4.21,4.21,0,0,1,.69.55,2.69,2.69,0,0,1,.5.7,2,2,0,0,1,.2.9,2.27,2.27,0,0,1-.18.91,2.44,2.44,0,0,1-.5.74,2.31,2.31,0,0,1-.74.5A2.27,2.27,0,0,1,60,59Z"/><path class="cls-1" d="M68.29,50.34H66.6V59h-.7V50.34H64.2v-.7h4.09Z"/><path class="cls-1" d="M70.91,59H70.2l1.69-9.34h1.28L74.82,59h-.71l-.34-2h-2.5Zm1.56-8.65-1.08,6h2.25l-1.05-6Z"/><path class="cls-1" d="M79.64,54.51a2.75,2.75,0,0,1,1,1,2.58,2.58,0,0,1,.4,1.42V59h-.7V56.9a1.9,1.9,0,0,0-.16-.77,2,2,0,0,0-1.05-1.05,1.89,1.89,0,0,0-.77-.16h-1V59h-.7V49.65h1.56a2.51,2.51,0,0,1,1,.21,2.7,2.7,0,0,1,.83.57,2.61,2.61,0,0,1,.56.83,2.57,2.57,0,0,1,.2,1,2.54,2.54,0,0,1-.34,1.3A2.58,2.58,0,0,1,79.64,54.51Zm-2.22-4.16v3.85h.86A1.84,1.84,0,0,0,79,54a1.94,1.94,0,0,0,1-1,1.84,1.84,0,0,0,.15-.74,1.88,1.88,0,0,0-.15-.75,1.93,1.93,0,0,0-1-1,1.84,1.84,0,0,0-.74-.15Z"/><path class="cls-1" d="M86.36,59h-.71l1.69-9.34h1.28L90.27,59h-.71l-.34-2h-2.5Zm1.56-8.65-1.08,6h2.25l-1.05-6Z"/><path class="cls-1" d="M95.44,59H92.17V49.63h.7v8.65h2.56Z"/><path class="cls-1" d="M105.95,59V50.36h-.13l-2,8.61h-1l-2-8.61h-.13V59H100V49.66h1.38L103.31,58l2-8.32h1.37V59Z"/><path class="cls-1" d="M109.25,50.34v3.26h2.34v.7h-2.34v4h2.91V59h-3.61V49.65h3.61v.7Z"/><path class="cls-1" d="M118.9,49.63v6.91a2.36,2.36,0,0,1-.19.94,2.5,2.5,0,0,1-.51.77,2.4,2.4,0,0,1-1.71.71,2.41,2.41,0,0,1-2.23-1.47,2.36,2.36,0,0,1-.19-.94V55.49h.7v1.07a1.68,1.68,0,0,0,.13.67,1.71,1.71,0,0,0,.37.55,1.7,1.7,0,0,0,.55.37,1.72,1.72,0,0,0,.67.13,1.67,1.67,0,0,0,.67-.13,1.73,1.73,0,0,0,.91-.92,1.68,1.68,0,0,0,.13-.67V50.33h-1.71v-.69h2.41Z"/><path class="cls-1" d="M123.12,59a2.26,2.26,0,0,1-.91-.18,2.29,2.29,0,0,1-.74-.5,2.4,2.4,0,0,1-.5-.74,2.26,2.26,0,0,1-.18-.91V52a2.26,2.26,0,0,1,.18-.91,2.31,2.31,0,0,1,1.23-1.23,2.33,2.33,0,0,1,1.82,0,2.31,2.31,0,0,1,1.23,1.23,2.27,2.27,0,0,1,.18.91v4.66a2.27,2.27,0,0,1-.18.91,2.44,2.44,0,0,1-.5.74,2.31,2.31,0,0,1-.74.5A2.27,2.27,0,0,1,123.12,59Zm0-8.62a1.58,1.58,0,0,0-.63.13,1.62,1.62,0,0,0-.52.35,1.66,1.66,0,0,0-.35.52,1.57,1.57,0,0,0-.13.64v4.67a1.57,1.57,0,0,0,.13.64,1.66,1.66,0,0,0,.35.51,1.62,1.62,0,0,0,.52.35,1.63,1.63,0,0,0,1.26,0,1.66,1.66,0,0,0,.86-.86,1.57,1.57,0,0,0,.13-.64V52a1.57,1.57,0,0,0-.13-.64,1.65,1.65,0,0,0-.86-.86A1.57,1.57,0,0,0,123.12,50.34Z"/><path class="cls-1" d="M130.27,54.51a2.75,2.75,0,0,1,1,1,2.58,2.58,0,0,1,.4,1.42V59H131V56.9a1.9,1.9,0,0,0-.16-.77,2,2,0,0,0-1.05-1.05,1.89,1.89,0,0,0-.77-.16h-1V59h-.7V49.65h1.56a2.51,2.51,0,0,1,1,.21,2.7,2.7,0,0,1,.83.57,2.61,2.61,0,0,1,.56.83,2.57,2.57,0,0,1,.2,1,2.54,2.54,0,0,1-.34,1.3A2.58,2.58,0,0,1,130.27,54.51ZM128,50.34v3.85h.86a1.84,1.84,0,0,0,.74-.15,1.94,1.94,0,0,0,1-1,1.84,1.84,0,0,0,.15-.74,1.88,1.88,0,0,0-.15-.75,1.93,1.93,0,0,0-1-1,1.84,1.84,0,0,0-.74-.15Z"/><path class="cls-1" d="M137.84,49.65a2.51,2.51,0,0,1,1,.21,2.7,2.7,0,0,1,.83.57,2.61,2.61,0,0,1,.56.83,2.67,2.67,0,0,1,0,2,2.61,2.61,0,0,1-.56.83,2.71,2.71,0,0,1-.83.56,2.51,2.51,0,0,1-1,.21H137V59h-.7V49.65h1.56Zm0,4.56a1.83,1.83,0,0,0,.74-.15,1.95,1.95,0,0,0,1-1,1.85,1.85,0,0,0,.15-.75,1.89,1.89,0,0,0-.15-.75,1.93,1.93,0,0,0-1-1,1.83,1.83,0,0,0-.74-.15H137V54.2Z"/><path class="cls-1" d="M145.28,54.51a2.75,2.75,0,0,1,1,1,2.58,2.58,0,0,1,.4,1.42V59H146V56.9a1.9,1.9,0,0,0-.16-.77,2,2,0,0,0-1.05-1.05,1.89,1.89,0,0,0-.77-.16h-1V59h-.7V49.65h1.56a2.51,2.51,0,0,1,1,.21,2.7,2.7,0,0,1,.83.57,2.61,2.61,0,0,1,.56.83,2.57,2.57,0,0,1,.2,1,2.54,2.54,0,0,1-.34,1.3A2.58,2.58,0,0,1,145.28,54.51Zm-2.22-4.16v3.85h.86a1.84,1.84,0,0,0,.74-.15,1.94,1.94,0,0,0,1-1,1.84,1.84,0,0,0,.15-.74,1.88,1.88,0,0,0-.15-.75,1.93,1.93,0,0,0-1-1,1.84,1.84,0,0,0-.74-.15Z"/><path class="cls-1" d="M149.33,50.34v3.26h2.34v.7h-2.34v4h2.91V59h-3.61V49.65h3.61v.7Z"/><path class="cls-1" d="M156.46,59a2.26,2.26,0,0,1-.91-.18,2.31,2.31,0,0,1-1.23-1.23,2.26,2.26,0,0,1-.18-.91V52a2.26,2.26,0,0,1,.18-.91,2.31,2.31,0,0,1,1.23-1.23,2.33,2.33,0,0,1,1.82,0,2.31,2.31,0,0,1,1.23,1.23,2.27,2.27,0,0,1,.18.91h-.7a1.57,1.57,0,0,0-.13-.63,1.65,1.65,0,0,0-.86-.86,1.63,1.63,0,0,0-1.26,0,1.61,1.61,0,0,0-.52.35,1.65,1.65,0,0,0-.35.51,1.57,1.57,0,0,0-.13.63v4.66a1.57,1.57,0,0,0,.13.63,1.65,1.65,0,0,0,.35.51,1.62,1.62,0,0,0,.52.35,1.63,1.63,0,0,0,1.26,0,1.65,1.65,0,0,0,.86-.86,1.57,1.57,0,0,0,.13-.63h.7a2.27,2.27,0,0,1-.18.91,2.31,2.31,0,0,1-1.23,1.23A2.27,2.27,0,0,1,156.46,59Z"/><path class="cls-1" d="M161.84,50.36v7.93h.47V59h-1.62v-.69h.46V50.36h-.46v-.7h1.63v.7Z"/><path class="cls-1" d="M166.54,59a2.26,2.26,0,0,1-.91-.18,2.29,2.29,0,0,1-.74-.5,2.4,2.4,0,0,1-.5-.74,2.26,2.26,0,0,1-.18-.91V52a2.26,2.26,0,0,1,.18-.91,2.31,2.31,0,0,1,1.23-1.23,2.33,2.33,0,0,1,1.82,0,2.31,2.31,0,0,1,1.23,1.23,2.27,2.27,0,0,1,.18.91v4.66a2.27,2.27,0,0,1-.18.91,2.44,2.44,0,0,1-.5.74,2.31,2.31,0,0,1-.74.5A2.27,2.27,0,0,1,166.54,59Zm0-8.62a1.58,1.58,0,0,0-.63.13,1.62,1.62,0,0,0-.52.35,1.66,1.66,0,0,0-.35.52,1.57,1.57,0,0,0-.13.64v4.67a1.57,1.57,0,0,0,.13.64,1.66,1.66,0,0,0,.35.51,1.62,1.62,0,0,0,.52.35,1.63,1.63,0,0,0,1.26,0,1.66,1.66,0,0,0,.86-.86,1.57,1.57,0,0,0,.13-.64V52a1.57,1.57,0,0,0-.13-.64,1.65,1.65,0,0,0-.86-.86A1.57,1.57,0,0,0,166.54,50.34Z"/></g></g></svg>